<mxfile host="Electron" agent="Mozilla/5.0 (Macintosh; Intel Mac OS X 10_15_7) AppleWebKit/537.36 (KHTML, like Gecko) draw.io/27.0.9 Chrome/134.0.6998.205 Electron/35.4.0 Safari/537.36" version="27.0.9">
  <diagram name="Page-1" id="09gnQbrcLcjUpxyhCd7x">
    <mxGraphModel dx="567" dy="515" grid="1" gridSize="10" guides="1" tooltips="1" connect="1" arrows="1" fold="1" page="1" pageScale="1" pageWidth="850" pageHeight="1100" background="#ffffff" math="0" shadow="0">
      <root>
        <mxCell id="0" />
        <mxCell id="1" parent="0" />
        <mxCell id="HqwWWxnO23v2ZquKlt4F-2" value="HAP eval." style="rounded=1;whiteSpace=wrap;html=1;fillColor=#fff2cc;strokeColor=#d6b656;" parent="1" vertex="1">
          <mxGeometry x="360" y="140" width="80" height="60" as="geometry" />
        </mxCell>
        <mxCell id="c8Kz1cjIccoRoO9TKuOa-3" value="&lt;b&gt;...&lt;/b&gt;" style="rounded=1;whiteSpace=wrap;html=1;fillColor=#fff2cc;strokeColor=#d6b656;" parent="1" vertex="1">
          <mxGeometry x="440" y="140" width="40" height="60" as="geometry" />
        </mxCell>
        <mxCell id="c8Kz1cjIccoRoO9TKuOa-4" value="latency eval.&lt;span style=&quot;color: rgba(0, 0, 0, 0); font-family: monospace; font-size: 0px; text-align: start; text-wrap: nowrap;&quot;&gt;%3CmxGraphModel%3E%3Croot%3E%3CmxCell%20id%3D%220%22%2F%3E%3CmxCell%20id%3D%221%22%20parent%3D%220%22%2F%3E%3CmxCell%20id%3D%222%22%20value%3D%22HAP%20eval.%22%20style%3D%22rounded%3D1%3BwhiteSpace%3Dwrap%3Bhtml%3D1%3BfillColor%3D%23fff2cc%3BstrokeColor%3D%23d6b656%3B%22%20vertex%3D%221%22%20parent%3D%221%22%3E%3CmxGeometry%20x%3D%22360%22%20y%3D%22340%22%20width%3D%2280%22%20height%3D%2260%22%20as%3D%22geometry%22%2F%3E%3C%2FmxCell%3E%3CmxCell%20id%3D%223%22%20value%3D%22%26lt%3Bb%26gt%3B...%26lt%3B%2Fb%26gt%3B%22%20style%3D%22rounded%3D1%3BwhiteSpace%3Dwrap%3Bhtml%3D1%3BfillColor%3D%23fff2cc%3BstrokeColor%3D%23d6b656%3B%22%20vertex%3D%221%22%20parent%3D%221%22%3E%3CmxGeometry%20x%3D%22440%22%20y%3D%22340%22%20width%3D%2240%22%20height%3D%2260%22%20as%3D%22geometry%22%2F%3E%3C%2FmxCell%3E%3C%2Froot%3E%3C%2FmxGraphModel%3E&lt;/span&gt;" style="rounded=1;whiteSpace=wrap;html=1;fillColor=#fff2cc;strokeColor=#d6b656;" parent="1" vertex="1">
          <mxGeometry x="200" y="140" width="80" height="60" as="geometry" />
        </mxCell>
        <mxCell id="c8Kz1cjIccoRoO9TKuOa-5" value="&lt;b&gt;...&lt;/b&gt;" style="rounded=1;whiteSpace=wrap;html=1;fillColor=#fff2cc;strokeColor=#d6b656;" parent="1" vertex="1">
          <mxGeometry x="280" y="140" width="40" height="60" as="geometry" />
        </mxCell>
        <mxCell id="c8Kz1cjIccoRoO9TKuOa-7" value="&lt;b&gt;...&lt;/b&gt;" style="rounded=1;whiteSpace=wrap;html=1;fillColor=#fff2cc;strokeColor=#d6b656;" parent="1" vertex="1">
          <mxGeometry x="120" y="140" width="40" height="60" as="geometry" />
        </mxCell>
        <mxCell id="c8Kz1cjIccoRoO9TKuOa-9" value="" style="shape=curlyBracket;whiteSpace=wrap;html=1;rounded=1;flipH=1;labelPosition=right;verticalLabelPosition=middle;align=left;verticalAlign=middle;size=0.5;rotation=270;" parent="1" vertex="1">
          <mxGeometry x="405" y="44" width="30" height="120" as="geometry" />
        </mxCell>
        <mxCell id="c8Kz1cjIccoRoO9TKuOa-10" value="Example Domain" style="text;html=1;align=center;verticalAlign=middle;resizable=0;points=[];autosize=1;strokeColor=none;fillColor=none;" parent="1" vertex="1">
          <mxGeometry x="365" y="61" width="110" height="30" as="geometry" />
        </mxCell>
        <mxCell id="c8Kz1cjIccoRoO9TKuOa-11" value="" style="shape=curlyBracket;whiteSpace=wrap;html=1;rounded=1;flipH=1;labelPosition=right;verticalLabelPosition=middle;align=left;verticalAlign=middle;size=0.5;rotation=270;" parent="1" vertex="1">
          <mxGeometry x="245" y="44" width="30" height="120" as="geometry" />
        </mxCell>
        <mxCell id="c8Kz1cjIccoRoO9TKuOa-12" value="Example Domain" style="text;html=1;align=center;verticalAlign=middle;resizable=0;points=[];autosize=1;strokeColor=none;fillColor=none;" parent="1" vertex="1">
          <mxGeometry x="205" y="61" width="110" height="30" as="geometry" />
        </mxCell>
        <mxCell id="c8Kz1cjIccoRoO9TKuOa-14" value="" style="endArrow=classic;html=1;rounded=0;exitX=0.5;exitY=1;exitDx=0;exitDy=0;strokeWidth=3;" parent="1" edge="1">
          <mxGeometry width="50" height="50" relative="1" as="geometry">
            <mxPoint x="420" y="280" as="sourcePoint" />
            <mxPoint x="420" y="280" as="targetPoint" />
          </mxGeometry>
        </mxCell>
        <mxCell id="c8Kz1cjIccoRoO9TKuOa-18" value="" style="endArrow=classic;html=1;rounded=0;exitX=0.5;exitY=1;exitDx=0;exitDy=0;strokeWidth=2;entryX=0.5;entryY=0;entryDx=0;entryDy=0;" parent="1" source="HqwWWxnO23v2ZquKlt4F-2" target="x0tJS8G9HbqzfCGhyq9s-12" edge="1">
          <mxGeometry width="50" height="50" relative="1" as="geometry">
            <mxPoint x="410" y="210" as="sourcePoint" />
            <mxPoint x="383" y="250" as="targetPoint" />
          </mxGeometry>
        </mxCell>
        <mxCell id="c8Kz1cjIccoRoO9TKuOa-19" value="Other eval." style="rounded=1;whiteSpace=wrap;html=1;fillColor=#fff2cc;strokeColor=#d6b656;" parent="1" vertex="1">
          <mxGeometry x="40" y="140" width="80" height="60" as="geometry" />
        </mxCell>
        <mxCell id="c8Kz1cjIccoRoO9TKuOa-21" value="" style="shape=curlyBracket;whiteSpace=wrap;html=1;rounded=1;flipH=1;labelPosition=right;verticalLabelPosition=middle;align=left;verticalAlign=middle;size=0.5;rotation=270;" parent="1" vertex="1">
          <mxGeometry x="86" y="44" width="30" height="120" as="geometry" />
        </mxCell>
        <mxCell id="c8Kz1cjIccoRoO9TKuOa-22" value="Example Domain" style="text;html=1;align=center;verticalAlign=middle;resizable=0;points=[];autosize=1;strokeColor=none;fillColor=none;" parent="1" vertex="1">
          <mxGeometry x="46" y="61" width="110" height="30" as="geometry" />
        </mxCell>
        <mxCell id="c8Kz1cjIccoRoO9TKuOa-23" value="" style="endArrow=classic;html=1;rounded=0;exitX=0.5;exitY=1;exitDx=0;exitDy=0;strokeWidth=2;entryX=0.5;entryY=0;entryDx=0;entryDy=0;" parent="1" source="c8Kz1cjIccoRoO9TKuOa-19" target="x0tJS8G9HbqzfCGhyq9s-12" edge="1">
          <mxGeometry width="50" height="50" relative="1" as="geometry">
            <mxPoint x="150" y="210" as="sourcePoint" />
            <mxPoint x="270" y="400" as="targetPoint" />
          </mxGeometry>
        </mxCell>
        <mxCell id="I_eKQ2xqUoPQEGkjYmp6-3" value="" style="endArrow=classic;html=1;rounded=0;exitX=0.5;exitY=1;exitDx=0;exitDy=0;strokeWidth=2;entryX=0.5;entryY=0;entryDx=0;entryDy=0;" parent="1" source="c8Kz1cjIccoRoO9TKuOa-4" target="x0tJS8G9HbqzfCGhyq9s-12" edge="1">
          <mxGeometry width="50" height="50" relative="1" as="geometry">
            <mxPoint x="310" y="270" as="sourcePoint" />
            <mxPoint x="392" y="348" as="targetPoint" />
          </mxGeometry>
        </mxCell>
        <mxCell id="x0tJS8G9HbqzfCGhyq9s-11" value="" style="group" parent="1" vertex="1" connectable="0">
          <mxGeometry x="100" y="280" width="320" height="210" as="geometry" />
        </mxCell>
        <mxCell id="x0tJS8G9HbqzfCGhyq9s-12" value="&lt;b&gt;Evaluation Reference Stack&lt;/b&gt;" style="shape=ext;double=1;rounded=1;whiteSpace=wrap;html=1;verticalAlign=bottom;fillColor=light-dark(#e5e4ec, #3b394a);strokeColor=none;" parent="x0tJS8G9HbqzfCGhyq9s-11" vertex="1">
          <mxGeometry width="320" height="210" as="geometry" />
        </mxCell>
        <mxCell id="x0tJS8G9HbqzfCGhyq9s-13" value="lm-evaluation-harness" style="rounded=0;whiteSpace=wrap;html=1;fillColor=#dae8fc;strokeColor=#6c8ebf;" parent="x0tJS8G9HbqzfCGhyq9s-11" vertex="1">
          <mxGeometry x="160" y="100" width="140" height="40" as="geometry" />
        </mxCell>
        <mxCell id="x0tJS8G9HbqzfCGhyq9s-14" value="unitxt" style="rounded=0;whiteSpace=wrap;html=1;fillColor=#d5e8d4;strokeColor=#82b366;" parent="x0tJS8G9HbqzfCGhyq9s-11" vertex="1">
          <mxGeometry x="90" y="60" width="110" height="40" as="geometry" />
        </mxCell>
        <mxCell id="x0tJS8G9HbqzfCGhyq9s-15" value="Other Stacks..." style="rounded=0;whiteSpace=wrap;html=1;fillColor=#dae8fc;strokeColor=#6c8ebf;" parent="x0tJS8G9HbqzfCGhyq9s-11" vertex="1">
          <mxGeometry x="160" y="140" width="140" height="40" as="geometry" />
        </mxCell>
        <mxCell id="x0tJS8G9HbqzfCGhyq9s-16" value="Infosy Resp. AI Toolkit" style="rounded=0;whiteSpace=wrap;html=1;fillColor=#dae8fc;strokeColor=#6c8ebf;" parent="x0tJS8G9HbqzfCGhyq9s-11" vertex="1">
          <mxGeometry x="21" y="100" width="140" height="40" as="geometry" />
        </mxCell>
        <mxCell id="x0tJS8G9HbqzfCGhyq9s-17" value="Llama Stack" style="rounded=0;whiteSpace=wrap;html=1;fillColor=#dae8fc;strokeColor=#6c8ebf;" parent="x0tJS8G9HbqzfCGhyq9s-11" vertex="1">
          <mxGeometry x="21" y="140" width="140" height="40" as="geometry" />
        </mxCell>
        <mxCell id="x0tJS8G9HbqzfCGhyq9s-18" value="lm-evaluation-harness" style="rounded=0;whiteSpace=wrap;html=1;fillColor=#d5e8d4;strokeColor=#82b366;" parent="x0tJS8G9HbqzfCGhyq9s-11" vertex="1">
          <mxGeometry x="200" y="20" width="100" height="80" as="geometry" />
        </mxCell>
        <mxCell id="x0tJS8G9HbqzfCGhyq9s-19" value="Eval Assist" style="rounded=0;whiteSpace=wrap;html=1;fillColor=#d5e8d4;strokeColor=#82b366;" parent="x0tJS8G9HbqzfCGhyq9s-11" vertex="1">
          <mxGeometry x="91" y="20" width="109" height="40" as="geometry" />
        </mxCell>
        <mxCell id="x0tJS8G9HbqzfCGhyq9s-20" value="Others..." style="rounded=0;whiteSpace=wrap;html=1;fillColor=#d5e8d4;strokeColor=#82b366;" parent="x0tJS8G9HbqzfCGhyq9s-11" vertex="1">
          <mxGeometry x="21" y="20" width="70" height="80" as="geometry" />
        </mxCell>
      </root>
    </mxGraphModel>
  </diagram>
</mxfile>
